<?xml version="1.0" standalone="no"?>
<!DOCTYPE svg PUBLIC "-//W3C//DTD SVG 20010904//EN"
 "http://www.w3.org/TR/2001/REC-SVG-20010904/DTD/svg10.dtd">
<svg version="1.0" xmlns="http://www.w3.org/2000/svg"
 width="382.000000pt" height="366.000000pt" viewBox="0 0 382.000000 366.000000"
 preserveAspectRatio="xMidYMid meet">

<g transform="translate(0.000000,366.000000) scale(0.100000,-0.100000)"
fill="#000000" stroke="none">
<path d="M0 1830 l0 -1830 1910 0 1910 0 0 1830 0 1830 -1910 0 -1910 0 0
-1830z m1715 973 c-41 -444 -389 -793 -826 -829 l-79 -7 0 265 0 265 50 6
c161 19 306 163 326 324 l6 53 265 0 265 0 -7 -77z m1255 25 c-280 -350 -606
-761 -608 -768 -2 -4 14 -14 35 -20 61 -20 185 -85 239 -125 167 -126 291
-308 346 -510 19 -72 22 -111 26 -398 l4 -317 -265 0 -266 0 -3 288 c-3 273
-4 290 -26 344 -33 81 -108 160 -190 200 -61 30 -74 33 -162 33 -83 0 -103 -3
-155 -28 -79 -37 -156 -114 -192 -191 l-28 -61 -3 -293 -3 -292 -265 0 -266 0
5 323 c4 283 7 330 24 392 29 99 64 182 108 251 31 48 520 675 882 1132 l74
92 365 0 366 0 -42 -52z"/>
</g>
</svg>
