<svg width="225" height="76" viewBox="0 0 225 76" fill="none" xmlns="http://www.w3.org/2000/svg">
<g clip-path="url(#clip0_15_583)" >
<path  id="svgInternalID" d="M47.86 0H36.8564V10.8586H47.86V0Z" fill="white"/>
<path  id="svgInternalID2" d="M221.691 20.6287H204.636V6.51453H193.635V20.6287H173.281V31.4872H193.635V56.4533C193.65 57.598 193.433 58.7342 192.996 59.7947C192.559 60.8553 191.911 61.8188 191.091 62.6284C190.271 63.4381 189.295 64.0776 188.22 64.5092C187.146 64.9408 185.995 65.1558 184.835 65.1415H161.822C163.208 62.4115 163.93 59.4002 163.93 56.3468V55.2582H152.927V56.3468C152.92 58.648 151.99 60.8529 150.341 62.4801C148.692 64.1073 146.458 65.0246 144.126 65.0316H135.325C132.993 65.0246 130.759 64.1073 129.11 62.4801C127.461 60.8529 126.531 58.648 126.524 56.3468V40.1721C126.52 39.0305 126.745 37.8993 127.186 36.8439C127.627 35.7884 128.275 34.8294 129.093 34.0222C129.911 33.2149 130.883 32.5753 131.952 32.1403C133.022 31.7052 134.168 31.4833 135.325 31.4872H144.126C145.286 31.472 146.437 31.6863 147.512 32.1173C148.587 32.5484 149.563 33.1876 150.384 33.9971C151.204 34.8066 151.852 35.7701 152.288 36.8306C152.725 37.8912 152.942 39.0274 152.927 40.1721V41.2573H163.93V40.1721C163.942 37.6025 163.437 35.0562 162.446 32.6801C161.454 30.3041 159.996 28.1452 158.155 26.3283C156.314 24.5113 154.126 23.0721 151.718 22.0939C149.31 21.1156 146.73 20.6177 144.126 20.6287H135.325C132.725 20.6287 130.15 21.1343 127.748 22.1166C125.346 23.0989 123.164 24.5387 121.326 26.3536C119.488 28.1686 118.031 30.3231 117.037 32.6942C116.043 35.0652 115.532 37.6062 115.534 40.1721V56.3501C115.535 59.4055 116.263 62.4179 117.659 65.1448H94.62C93.4598 65.1596 92.3084 64.9449 91.2337 64.5135C90.1589 64.082 89.1826 63.4426 88.3623 62.6328C87.5421 61.823 86.8944 60.8593 86.4576 59.7986C86.0209 58.7378 85.8038 57.6015 85.8192 56.4566V31.4906H106.173V20.6287H85.8158V6.51453H74.8122V20.6287H13.7562V31.4872H37.4128V56.3501C37.4057 58.6513 36.4762 60.8563 34.8273 62.4835C33.1784 64.1107 30.944 65.0279 28.612 65.035H19.8011C17.4691 65.0279 15.2347 64.1107 13.5858 62.4835C11.9368 60.8563 11.0073 58.6513 11.0002 56.3501V53.1877H0V56.3368C0 67.0855 8.80085 75.9768 19.8011 75.9768H28.6053C39.4942 75.9768 48.4063 67.0755 48.4063 56.3368V31.4872H74.8122V56.4533C74.8006 59.0234 75.305 61.5704 76.2963 63.947C77.2877 66.3237 78.7463 68.4831 80.5879 70.3005C82.4296 72.1178 84.6177 73.5572 87.0262 74.5355C89.4346 75.5137 92.0156 76.0115 94.62 76.0001H184.838C187.441 76.0106 190.021 75.5123 192.429 74.5339C194.836 73.5554 197.024 72.1162 198.864 70.2993C200.705 68.4823 202.163 66.3237 203.154 63.9478C204.146 61.5719 204.65 59.0259 204.639 56.4566V31.4906H225V20.6287H221.691Z" fill="white"/>
</g>
<defs>
<clipPath id="clip0_15_583">
<rect width="225" height="76" fill="white"/>
</clipPath>
</defs>
</svg>
