<?xml version="1.0" encoding="UTF-8"?>
<svg width="1218px" height="1084px" viewBox="0 0 1218 1084" version="1.1" xmlns="http://www.w3.org/2000/svg" xmlns:xlink="http://www.w3.org/1999/xlink">
    <title>Group 39</title>
    <g id="APP" stroke="none" stroke-width="1" fill="none" fill-rule="evenodd">
        <g id="Illustrations" transform="translate(-3259.000000, -1146.000000)">
            <g id="Group-39" transform="translate(3259.109362, 1146.070700)">
                <path d="M446.950438,262.5732 L445.160438,268.7332 L440.770438,283.8132 C440.770438,283.8132 440.770438,283.8232 440.760438,283.8232 C437.350438,290.4642 433.140438,293.7942 429.180438,295.3442 C422.450438,297.9932 416.470438,295.5132 416.470438,295.5132 C387.850438,287.1432 392.200438,264.5332 392.200438,264.5332 L396.870438,251.7632 L408.070438,221.1242 C409.030438,223.9532 410.120438,226.6932 411.040438,229.1032 C413.260438,234.9032 416.010438,240.5532 419.570438,245.6532 C421.120438,247.8632 422.820438,249.9242 424.660438,251.7832 C430.720438,257.9242 438.320438,261.9532 446.950438,262.5732" id="Fill-1132" fill="#94C0FE"></path>
                <path d="M497.080838,204.4434 C496.809838,204.6244 495.010838,205.5334 494.990838,205.8744 C494.990838,205.9644 492.880838,257.6244 453.470838,262.4134 C451.240838,262.6834 449.059838,262.7334 446.950838,262.5734 C435.700838,261.7634 426.220838,255.1734 419.570838,245.6534 C416.010838,240.5534 413.260838,234.9034 411.040838,229.1034 C410.120838,226.6934 409.030838,223.9534 408.070838,221.1244 C406.640838,216.9534 405.480838,212.5934 405.480838,208.8134 C405.480838,209.7334 404.250838,210.0534 403.320838,210.0534 C395.750838,210.0444 387.800838,208.5234 384.440838,200.9034 C381.900838,195.1334 383.130838,188.0634 387.780838,183.8744 C389.300838,182.4934 390.980838,181.6034 392.750838,181.0844 C396.400838,179.9734 400.440838,180.3834 404.309838,181.1434 C405.200838,181.3234 415.080838,183.9434 415.080838,183.9644 C431.590838,150.0334 445.730838,148.8134 445.730838,148.8134 C462.050838,148.2634 472.840838,154.1034 479.970838,161.7544 C483.160838,165.1734 485.609838,168.9534 487.490838,172.6934 C487.819838,173.3434 488.130838,173.9834 488.420838,174.6244 C493.080838,184.8134 493.689838,194.1244 493.689838,194.1244 C493.689838,193.7434 497.100838,195.3634 497.309838,195.4834 C497.939838,195.8434 498.510838,196.2144 498.979838,196.6834 C499.390838,197.0844 499.720838,197.5534 499.960838,198.1634 C500.000838,198.2544 500.030838,198.3534 500.059838,198.4434 C500.979838,201.2034 499.220838,203.0044 497.080838,204.4434" id="Fill-1133" fill="#94C0FD"></path>
                <path d="M479.970438,161.7539 C472.840438,154.1039 462.050438,148.2639 445.730438,148.8139 C445.730438,148.8139 431.590438,150.0329 415.080438,183.9639 C415.080438,183.9429 405.200438,181.3229 404.310438,181.1439 C400.440438,180.3839 396.400438,179.9739 392.750438,181.0839 C392.170438,170.4239 393.290438,134.2429 434.310438,129.6839 C434.310438,129.6839 451.180438,128.5539 465.300438,138.6129 C465.300438,138.6129 475.400438,138.5639 478.930438,128.9929 C478.930438,128.9929 481.220438,128.8939 480.491438,130.3439 C479.760438,131.8039 477.370438,141.3629 475.190438,141.9929 C473.010438,142.6129 485.170438,144.0729 489.330438,137.1039 C489.330438,137.1039 497.020438,142.8229 489.750438,151.3439 C489.750438,151.3439 486.420438,155.0939 485.590438,155.3039 C484.750438,155.5039 490.890438,155.5039 492.140438,153.1129 C493.330438,150.8229 489.470438,160.6529 479.970438,161.7539" id="Fill-1134" fill="#272727"></path>
                <path d="M239.540738,581.2236 L220.310738,606.2436 L204.280738,627.1036 L195.640738,619.9336 L183.120738,609.5336 C186.500738,607.4936 191.090738,604.2536 193.840738,600.4236 C193.760738,599.4836 193.710738,598.9036 193.710738,598.8036 C193.710738,598.6236 192.870738,599.1436 191.620738,600.0136 C188.880738,603.4336 184.540738,606.3636 181.490738,608.1736 L181.150738,607.8936 C181.150738,607.8936 180.030738,608.7936 177.960738,610.1036 C169.840738,615.2136 147.060738,626.5336 119.670738,614.0836 C111.160738,610.2136 108.980738,599.1236 115.480738,592.3936 L171.900738,533.9936 C175.610738,530.1626 181.680738,529.9236 185.670738,533.4636 L219.190738,563.1836 L239.540738,581.2236 Z" id="Fill-1135" fill="#94C0FE"></path>
                <path d="M431.340638,686.9834 L405.650638,701.9934 L392.660638,709.5934 C396.040638,692.5634 397.730638,670.6634 395.710638,642.8744 L399.250638,640.2234 L406.940638,651.4334 L431.340638,686.9834 Z" id="Fill-1136" fill="#94C0FE"></path>
                <path d="M373.669238,785.6035 L356.060238,766.5435 C360.081238,765.9035 363.950238,764.6835 367.640238,762.8235 C367.640238,762.8235 382.550238,751.2835 390.970238,717.2335 C429.849238,747.1815 412.076238,773.2795 397.011238,786.7535 C390.235238,792.8165 379.839238,792.2825 373.669238,785.6035" id="Fill-1137" fill="#94C0FE"></path>
                <path d="M442.490538,703.2334 L431.340538,686.9834 L399.250538,640.2234 L397.610538,637.8344 L456.170538,580.4234 C446.410538,583.6834 429.480538,583.5934 414.730538,582.6534 L380.590538,546.6334 L386.280538,579.7634 C391.440538,603.5734 394.380538,624.5134 395.710538,642.8744 C397.730538,670.6634 396.040538,692.5634 392.660538,709.5934 C392.140538,712.2634 391.570538,714.8034 390.970538,717.2334 C382.550538,751.2834 367.640538,762.8234 367.640538,762.8234 C363.950538,764.6834 360.080538,765.9034 356.060538,766.5444 C292.640538,776.5444 192.570538,642.3344 192.570538,642.3344 L204.280538,627.1034 L220.150538,606.4434 L223.310538,602.3344 L230.140538,593.4534 L239.540538,581.2234 L247.600538,570.7334 L247.820538,570.4434 C232.120538,528.4234 234.360538,497.6134 237.200538,482.6834 C246.610538,484.4934 259.250538,486.6934 273.630538,488.5844 C275.440538,488.8234 277.280538,489.0534 279.150538,489.2834 C320.720538,494.3634 374.490538,496.3634 407.140538,479.9234 C459.580538,477.6434 549.740538,480.9134 581.480538,526.2634 C627.320538,591.7434 442.490538,703.2334 442.490538,703.2334" id="Fill-1138" fill="#94C39F"></path>
                <path d="M643.980238,290.5137 C639.820238,295.2237 629.730238,301.0637 616.090238,307.4437 C614.600238,308.1337 613.070238,308.8437 611.491238,309.5537 C596.520238,316.3137 577.970238,323.5837 558.550238,330.7027 C556.970238,331.2837 555.390238,331.8537 553.810238,332.4337 C529.020238,341.4237 503.170238,350.0837 481.741238,357.0337 C479.991238,357.5937 478.270238,358.1537 476.581238,358.6937 C450.780238,367.0137 432.550238,372.5037 432.550238,372.5037 L408.831238,479.0537 C408.270238,479.3537 407.710238,479.6437 407.140238,479.9237 C395.890238,485.5937 382.120238,489.0737 367.210238,490.9837 C365.390238,491.2137 363.560238,491.4237 361.710238,491.6137 C342.630238,493.5537 322.010238,493.1437 302.550238,491.6437 C300.831238,491.5037 299.110238,491.3637 297.410238,491.2137 C291.140238,490.6627 285.020238,490.0037 279.150238,489.2837 C277.280238,489.0537 275.440238,488.8237 273.630238,488.5837 C259.251238,486.6937 246.610238,484.4927 237.200238,482.6837 C226.400238,480.6137 219.870238,479.0537 219.870238,479.0537 L292.710238,315.0637 L246.760238,283.5737 L242.390238,280.5737 L169.660238,230.7337 L165.501238,227.8837 L131.470238,204.5637 L126.610238,201.2337 L61.3002383,156.4737 L64.2912383,151.9527 L88.6402383,115.1737 L97.0902383,102.3937 C97.0902383,102.3937 110.260238,111.1627 129.860238,123.9337 C131.440238,124.9637 133.070238,126.0137 134.730238,127.0937 C156.460238,141.2137 184.740238,159.3437 211.650238,175.8737 C213.100238,176.7737 214.541238,177.6537 215.980238,178.5337 C229.310238,186.6837 242.190238,194.3537 253.640238,200.8637 C256.440238,202.4527 259.370238,204.0737 262.400238,205.7027 C263.880238,206.5137 265.400238,207.3137 266.930238,208.1237 C299.720238,225.4037 342.870238,244.1537 375.910238,257.8437 C377.480238,258.4927 379.030238,259.1337 380.550238,259.7637 C384.630238,261.4437 388.520238,263.0437 392.200238,264.5337 C392.200238,264.5337 387.850238,287.1437 416.470238,295.5137 C416.470238,295.5137 422.120238,297.8537 428.610238,295.5637 C430.810238,294.7837 433.120238,293.4737 435.331238,291.3437 C437.251238,289.5037 439.100238,287.0637 440.760238,283.8237 C440.770238,283.8237 440.770238,283.8137 440.770238,283.8137 C446.331238,285.6737 453.680238,287.8837 463.190238,290.3437 C467.560238,291.4737 474.380238,291.0937 482.791238,289.6537 C484.440238,289.3737 486.161238,289.0537 487.930238,288.6937 C502.810238,285.6537 521.560238,279.9527 540.331238,273.5337 C541.911238,272.9927 543.501238,272.4437 545.081238,271.8937 C556.701238,267.8637 568.201238,263.6137 578.650238,259.6237 C580.270238,259.0037 581.860238,258.3837 583.430238,257.7837 L583.440238,257.7837 C606.350238,248.9527 623.170238,241.8137 623.170238,241.8137 L624.180238,244.1837 L632.090238,262.6837 L636.610238,273.2637 L641.661238,285.0737 L643.980238,290.5137 Z" id="Fill-1139" fill="#FFCD48"></path>
                <path d="M666.600338,203.0039 C665.610338,213.2329 664.760338,223.4739 663.911338,233.7139 C663.100338,243.4029 662.270338,253.2239 659.090338,262.4129 C658.650338,263.7139 658.150338,265.0039 657.590338,266.2739 C654.230338,273.9829 648.911338,280.9339 641.550338,284.8839 C637.570338,275.5639 633.600338,266.2539 629.630338,256.9339 C628.650338,254.6439 627.680338,252.3539 626.701338,250.0729 C626.140338,248.7539 623.920338,245.3139 624.390338,243.9929 C624.760338,242.9339 627.411338,241.3939 628.150338,240.1929 C629.201338,238.4739 629.830338,236.5039 630.121338,234.5239 C630.670338,230.6629 630.040338,226.7429 629.580338,222.8629 C628.390338,212.9029 628.281338,202.8039 629.260338,192.8229 C629.451338,190.9639 629.770338,188.9129 631.230338,187.7429 C631.790338,187.2939 632.550338,187.1339 633.270338,187.2029 L635.220338,213.7539 C635.260338,214.2829 635.701338,214.6839 636.220338,214.6839 L636.290338,214.6839 C636.840338,214.6439 637.260338,214.1629 637.220338,213.6129 L635.400338,188.8339 L635.400338,188.7939 C635.260338,183.2739 635.590338,177.7539 636.400338,172.2829 C636.630338,170.6629 636.930338,168.9929 637.781338,167.5939 C638.640338,166.1839 640.170338,165.0729 641.810338,165.1839 C642.241338,165.2139 642.661338,165.3539 643.040338,165.5729 L643.690338,214.5539 C643.701338,215.1039 644.140338,215.5439 644.690338,215.5439 L644.701338,215.5439 C645.260338,215.5329 645.701338,215.0839 645.690338,214.5329 L645.050338,166.6529 C645.350338,165.7539 645.730338,164.8939 646.281338,164.1339 C647.220338,162.8339 648.760338,161.8439 650.350338,162.0239 C653.230338,162.3339 654.420338,165.8139 654.880338,168.6739 C656.080338,176.1439 656.680338,183.7029 656.650338,191.2739 L656.650338,191.2829 C655.380338,195.6839 652.150338,208.0729 653.281338,216.3939 C653.350338,216.8939 653.781338,217.2639 654.270338,217.2639 C654.310338,217.2639 654.360338,217.2639 654.400338,217.2539 C654.951338,217.1839 655.340338,216.6739 655.260338,216.1239 C653.960338,206.5239 658.980338,190.4429 659.031338,190.2829 C659.080338,190.1439 659.090338,189.9929 659.070338,189.8539 C659.140338,189.7539 659.220338,189.6629 659.310338,189.5729 C662.480338,186.2029 665.400338,187.6439 666.690338,191.6529 C667.860338,195.3139 666.960338,199.2739 666.600338,203.0039" id="Fill-1140" fill="#94C0FE"></path>
                <path d="M88.6208383,115.2139 C89.2108383,115.8589 76.5658383,133.4169 75.3748383,135.2159 C73.1218383,138.6169 70.8698383,142.0189 68.6168383,145.4199 C67.5678383,147.0049 66.6208383,148.8869 65.3728383,150.3179 C63.7278383,152.2049 63.2698383,151.3809 60.9418383,150.3549 C51.2238383,146.0679 41.7178383,141.3129 32.4048383,136.2079 C27.6848383,133.6199 23.0138383,130.9429 18.3868383,128.1919 C14.5258383,125.8959 9.00583834,123.6799 6.24683834,120.0139 C5.19883834,118.6209 4.67483834,116.7019 5.36883834,115.1029 C7.04783834,111.2319 12.8388383,111.8699 16.1898383,112.2709 C19.0878383,112.6179 21.9768383,113.0749 24.8088383,113.7899 C26.9038383,114.3189 32.4518383,115.1899 33.8388383,116.9249 C24.1638383,104.8179 14.4908383,92.7119 4.81583834,80.6069 C2.85383834,78.1509 0.832838336,75.5739 0.176838336,72.4999 C-0.479161664,69.4259 0.695838336,65.7159 3.60383834,64.5229 C5.59883834,63.7049 7.94483834,64.2489 9.76483834,65.4039 C11.5848383,66.5599 12.9848383,68.2559 14.3518383,69.9229 C21.0258383,78.0589 27.6988383,86.1929 34.3718383,94.3289 C34.8638383,94.9289 35.6738383,95.5849 36.3128383,95.1459 C37.0288383,94.6519 36.5118383,93.5389 35.9508383,92.8729 L15.2618383,68.2929 C13.7268383,66.4699 12.0908383,64.1509 12.8988383,61.9079 C13.6038383,59.9509 16.0098383,59.0409 18.0598383,59.3869 C20.1108383,59.7329 21.8618383,61.0279 23.4598383,62.3589 C31.2678383,68.8579 37.5448383,77.1839 41.6418383,86.4799 C41.9468383,87.1699 42.2678383,87.9019 42.8868383,88.3359 C43.5048383,88.7699 44.5188383,88.7309 44.8678383,88.0609 C45.1918383,87.4399 44.7968383,86.6989 44.4138383,86.1119 C40.6608383,80.3619 36.9078383,74.6129 33.1548383,68.8629 C34.0098383,67.6299 35.7808383,67.3289 37.2188383,67.7619 C38.6558383,68.1939 39.8368383,69.2019 40.9698383,70.1879 C57.4618383,84.5269 73.3598383,99.5489 88.6208383,115.2139" id="Fill-1141" fill="#94C0FE"></path>
                <path d="M992.830838,365.1533 C990.769838,367.3233 987.890838,368.5633 984.960838,369.1433 C981.030838,369.9133 976.800838,369.8633 972.830838,369.4333 C972.640838,369.4133 970.019838,368.9243 969.960838,369.0333 C969.960838,369.0333 969.960838,369.0443 969.950838,369.0633 C969.910838,369.1333 969.790838,369.3343 969.620838,369.6533 C969.550838,369.7733 969.470838,369.9133 969.380838,370.0733 C969.300838,370.2233 969.200838,370.3933 969.109838,370.5733 C968.990838,370.7733 968.859838,371.0043 968.729838,371.2433 C968.710838,371.2943 968.680838,371.3343 968.660838,371.3743 C968.580838,371.5133 968.500838,371.6743 968.410838,371.8233 C967.880838,372.7633 967.250838,373.8933 966.530838,375.1633 C966.350838,375.4733 966.170838,375.7943 965.990838,376.1243 C965.890838,376.2943 965.790838,376.4733 965.689838,376.6533 C965.340838,377.2733 964.970838,377.9133 964.600838,378.5633 C964.100838,379.4333 963.590838,380.3343 963.069838,381.2333 C962.890838,381.5333 962.720838,381.8433 962.540838,382.1433 C961.790838,383.4433 961.019838,384.7633 960.250838,386.0533 L960.250838,386.0633 C960.059838,386.3743 959.880838,386.6833 959.689838,386.9933 C959.510838,387.3033 959.330838,387.6133 959.140838,387.9133 C958.590838,388.8343 958.050838,389.7233 957.530838,390.5733 L957.200838,391.1133 C957.090838,391.2943 956.979838,391.4643 956.870838,391.6433 C956.649838,391.9933 956.439838,392.3343 956.229838,392.6633 C956.130838,392.8233 956.019838,392.9933 955.920838,393.1533 C955.640838,393.5843 955.370838,393.9933 955.120838,394.3833 C954.240838,395.7033 953.500838,396.7543 952.950838,397.3833 C950.319838,400.4033 946.450838,402.8133 942.189838,404.6533 C936.510838,407.1033 930.140838,408.5443 925.109838,409.0843 C923.470838,409.2633 921.870838,409.3233 920.300838,409.2833 C896.490838,408.6033 881.564838,386.0633 886.450838,360.4643 C887.931838,352.7033 893.720838,340.7143 895.109838,341.6243 C891.729838,339.4243 888.540838,335.1633 891.350838,331.2633 C892.550838,329.5933 894.580838,328.6743 896.609838,328.6433 C896.859838,328.6433 900.600838,329.2733 900.600838,329.5043 C906.300838,319.2543 911.899838,313.3133 916.430838,309.8833 C922.439838,305.3343 926.569838,305.1743 926.569838,305.1743 L927.600838,305.1743 C934.670838,305.6633 936.050838,314.9533 937.189838,320.3933 C938.990838,328.9933 940.559838,338.0933 947.470838,344.2033 C951.880838,348.1133 958.830838,351.3633 964.800838,349.8033 C968.870838,348.7333 972.470838,346.4243 976.430838,345.0533 C981.819838,343.1833 987.590838,343.7833 991.760838,347.8633 C996.340838,352.3433 997.430838,360.2943 992.830838,365.1533" id="Fill-1142" fill="#FF777B"></path>
                <path d="M1106.44024,460.3838 L1048.52024,450.4528 L1097.22024,474.3338 L1091.31024,483.0728 L993.461238,441.9038 C983.501238,432.0728 973.541238,425.2028 963.890238,422.6438 L960.251238,386.0638 L960.251238,386.0538 C961.020238,384.7638 961.791238,383.4438 962.541238,382.1438 C962.720238,381.8338 962.890238,381.5328 963.070238,381.2338 C963.590238,380.3338 964.100238,379.4338 964.600238,378.5638 C964.980238,377.9038 965.340238,377.2738 965.690238,376.6538 C965.791238,376.4738 965.890238,376.2938 965.991238,376.1238 C966.180238,375.7938 966.360238,375.4738 966.531238,375.1628 C967.251238,373.8938 967.880238,372.7638 968.411238,371.8228 C968.501238,371.6738 968.581238,371.5138 968.661238,371.3738 C968.680238,371.3338 968.711238,371.2938 968.730238,371.2428 C968.860238,371.0038 968.991238,370.7738 969.110238,370.5728 C969.201238,370.3938 969.300238,370.2238 969.380238,370.0728 C969.470238,369.9128 969.550238,369.7738 969.621238,369.6538 C969.791238,369.3338 969.911238,369.1338 969.951238,369.0638 C969.961238,369.0438 969.961238,369.0328 969.961238,369.0328 C970.020238,368.9238 972.640238,369.4128 972.831238,369.4338 C976.800238,369.8628 981.031238,369.9128 984.961238,369.1438 C987.890238,368.5638 990.770238,367.3228 992.831238,365.1538 C997.430238,360.2938 996.340238,352.3438 991.760238,347.8628 C987.590238,343.7828 981.820238,343.1838 976.430238,345.0538 C972.470238,346.4238 968.871238,348.7338 964.800238,349.8038 C958.831238,351.3628 951.880238,348.1128 947.470238,344.2028 C940.560238,338.0938 938.991238,328.9928 937.190238,320.3938 C936.050238,314.9528 934.670238,305.6628 927.600238,305.1738 L926.570238,305.1738 C926.570238,305.1738 922.440238,305.3338 916.430238,309.8838 C915.400238,305.3038 914.090238,294.5538 924.550238,294.3938 C924.550238,294.3938 931.640238,292.7238 936.060238,298.2338 C936.060238,298.2338 954.840238,285.8938 975.050238,294.1538 C995.260238,302.4128 1002.42024,324.2028 1001.71124,337.2028 C1001.00124,350.2028 1003.36024,377.6338 1023.46124,371.2538 C1043.56024,364.8628 1080.20124,339.3338 1080.20124,339.3338 L1107.63024,375.2638 L1081.38024,392.0538 L1103.61024,389.9238 L1107.63024,429.4128 L1076.18024,430.8228 L1110.70124,444.3038 L1106.44024,460.3838 Z" id="Fill-1143" fill="#272727"></path>
                <path d="M963.890438,422.6436 C962.781438,425.0436 961.550438,427.1836 960.220438,429.0736 C946.480438,448.6236 922.540438,442.2936 922.540438,442.2936 L922.510438,441.9136 L922.020438,434.6836 L920.300438,409.2836 C921.870438,409.3236 923.470438,409.2636 925.110438,409.0836 C929.920438,408.5636 935.951438,407.2236 941.440438,404.9736 C941.690438,404.8636 941.940438,404.7636 942.190438,404.6536 C946.451438,402.8136 950.320438,400.4036 952.951438,397.3836 C953.500438,396.7536 954.241438,395.7036 955.120438,394.3836 C955.380438,393.9936 955.650438,393.5836 955.920438,393.1536 C956.020438,392.9936 956.130438,392.8236 956.230438,392.6636 C956.440438,392.3336 956.650438,391.9936 956.870438,391.6436 C956.980438,391.4636 957.090438,391.2936 957.201438,391.1136 L957.531438,390.5736 C958.060438,389.7236 958.600438,388.8336 959.140438,387.9136 C959.330438,387.6136 959.510438,387.3036 959.690438,386.9936 C959.880438,386.6836 960.060438,386.3736 960.250438,386.0636 L963.890438,422.6436 Z" id="Fill-1144" fill="#FF777B"></path>
                <path d="M959.140438,387.9131 C958.600438,388.8341 958.060438,389.7241 957.531438,390.5731 C958.050438,389.7241 958.590438,388.8341 959.140438,387.9131" id="Fill-1145" fill="#FFB5B8"></path>
                <path d="M1103.62084,640.6533 C1093.10984,646.7033 1082.68084,651.6833 1072.39084,655.7433 C1062.66084,659.5843 1053.05984,662.5843 1043.64084,664.8833 C1036.09984,666.7233 1028.68084,668.1033 1021.41084,669.0933 C969.220838,676.1933 924.500838,662.9933 897.819838,651.7943 C881.130838,644.7833 871.500838,638.5533 871.500838,638.5533 L874.040838,622.6133 L851.660838,625.1533 L828.120838,627.8233 L770.140838,634.3933 C770.140838,634.3933 771.370838,630.2733 772.269838,623.4033 C773.649838,612.8933 774.250838,595.9433 768.470838,577.5043 C767.170838,573.3343 765.530838,569.0733 763.500838,564.8033 L885.010838,553.8633 L892.979838,503.8933 L859.599838,474.9433 L840.080838,458.0233 L716.569838,350.9133 C724.830838,347.5533 731.660838,341.1333 737.220838,333.5233 C746.450838,320.9033 752.200838,305.0233 755.309838,294.4733 C757.330838,287.6033 758.220838,282.9833 758.220838,282.9833 L791.960838,317.2543 L807.920838,333.4643 L917.149838,444.4133 L922.510838,441.9133 L922.540838,442.2943 C922.540838,442.2943 946.479838,448.6243 960.220838,429.0733 C961.550838,427.1833 962.780838,425.0443 963.890838,422.6433 C973.540838,425.2033 983.500838,432.0733 993.460838,441.9033 C999.660838,448.0133 1005.87084,455.2733 1011.99084,463.3343 C1016.56984,469.3633 1021.10984,475.8533 1025.58084,482.6533 C1068.12084,547.4833 1103.62084,640.6533 1103.62084,640.6533" id="Fill-1146" fill="#FDEFE1"></path>
                <path d="M1168.00074,873.8135 C1153.35974,873.0535 1131.02074,865.5235 1130.03074,826.8345 L1129.95074,826.8635 C1129.49074,815.7435 1130.91074,807.2335 1130.93074,807.1435 C1131.03074,806.5935 1130.66074,806.0845 1130.12074,805.9835 C1129.56974,805.8935 1129.05074,806.2535 1128.96074,806.8035 C1128.93974,806.9035 1127.43074,815.9335 1127.97974,827.5845 L1122.54074,829.5845 L1101.39074,837.3435 L1096.33074,816.0935 L1091.47074,795.6835 L1091.47074,795.6735 L1149.18974,768.0335 C1155.64074,764.9435 1163.26074,768.9035 1164.43974,775.9635 L1178.72074,861.8035 C1179.80074,868.3135 1174.59074,874.1535 1168.00074,873.8135" id="Fill-1147" fill="#FF777B"></path>
                <path d="M1133.26054,956.9932 L1128.88054,969.5632 L1110.29054,1022.8842 L1104.17054,1040.4332 C1104.17054,1040.4332 1088.96054,1034.7642 1066.22054,1025.8532 C1058.69054,1022.9032 1050.33054,1019.6032 1041.42054,1016.0332 C1004.77054,1001.3532 958.840538,982.1742 923.020538,964.6742 C852.210538,930.0942 863.800538,865.3232 863.800538,865.3232 C863.800538,865.3232 832.340538,861.4642 826.560538,813.2732 C821.510538,771.1632 882.360538,675.3342 897.820538,651.7942 C926.510538,663.8342 976.040538,678.1832 1033.30054,667.1432 L1068.98054,702.7832 C1056.49054,752.0942 1024.08054,808.6632 1024.08054,808.6632 L1037.36054,802.0232 L1062.33054,789.5332 L1087.06054,777.1742 L1091.47054,795.6742 L1091.47054,795.6832 L1101.39054,837.3442 L1106.74054,859.8342 L1078.59054,873.8532 L1055.91054,885.1532 L1012.63054,906.7142 L1073.93054,932.2642 L1095.32054,941.1742 L1133.26054,956.9932 Z" id="Fill-1148" fill="#FFCD48"></path>
                <path d="M1192.33084,1006.9639 L1175.84084,1074.9129 C1174.66084,1079.7829 1170.39984,1083.3339 1165.39984,1083.4929 C1118.04084,1084.9839 1131.35084,1033.7029 1132.41084,1029.8739 C1136.42084,1022.5039 1142.31984,1017.1629 1142.39084,1017.1039 C1142.80084,1016.7339 1142.84084,1016.1039 1142.47084,1015.6929 C1142.10084,1015.2829 1141.47084,1015.2429 1141.05984,1015.6129 C1140.76984,1015.8839 1134.71084,1021.3439 1130.55984,1029.0639 L1110.29084,1022.8839 L1120.39984,993.9029 L1128.88084,969.5639 L1168.58084,983.9339 L1182.71084,989.0439 C1190.01984,991.6929 1194.16084,999.4129 1192.33084,1006.9639" id="Fill-1149" fill="#FF777B"></path>
                <path d="M755.310338,294.4736 C753.701338,299.9336 751.390338,306.8136 748.250338,313.9336 C745.320338,320.5736 741.680338,327.4336 737.220338,333.5236 C733.500338,332.2736 730.170338,330.1436 727.201338,327.3436 C723.951338,324.2936 721.121338,320.4526 718.680338,316.0836 C704.270338,290.3136 703.201338,246.2736 706.800338,239.2936 C709.720338,233.6536 712.650338,234.8736 714.531338,236.7636 L720.850338,263.7336 C720.960338,264.1936 721.371338,264.5036 721.831338,264.5036 C721.900338,264.5036 721.980338,264.4936 722.060338,264.4836 C722.590338,264.3536 722.930338,263.8136 722.800338,263.2736 L716.720338,237.3336 C717.150338,231.4936 716.632338,216.5226 720.302338,212.1126 C722.802338,209.1026 727.031338,210.0436 728.531338,211.9126 L731.081338,261.7936 C731.100338,262.3236 731.550338,262.7436 732.070338,262.7436 C732.090338,262.7436 732.110338,262.7436 732.130338,262.7336 C732.680338,262.7136 733.100338,262.2436 733.070338,261.6836 L730.690338,215.0836 C736.201338,209.0536 738.540338,221.1036 739.430338,228.5536 L739.430338,228.5636 C739.400338,228.6536 739.380338,228.7536 739.380338,228.8536 L738.491338,261.7136 C738.480338,262.2636 738.920338,262.7236 739.470338,262.7436 L739.500338,262.7436 C740.031338,262.7436 740.480338,262.3136 740.491338,261.7636 L741.250338,233.6626 C746.121338,234.3036 745.060338,250.0336 744.781338,266.0236 C744.570338,277.5836 749.331338,286.3736 752.510338,290.9436 C754.100338,293.2236 755.300338,294.4526 755.300338,294.4526 L755.310338,294.4736 Z" id="Fill-1150" fill="#FF777B"></path>
                <path d="M772.270238,623.4033 C770.270238,623.1743 766.570238,622.7333 761.791238,622.1033 C759.730238,621.8343 757.460238,621.5133 755.041238,621.1743 C728.520238,617.3433 683.880238,609.1533 688.220238,597.7733 C688.220238,597.7733 686.791238,592.1933 699.241238,593.3933 C711.291238,594.5533 717.081238,596.6333 717.430238,596.7633 C716.331238,595.9333 672.781238,563.2943 680.890238,552.3933 C680.890238,552.3933 683.201238,549.3033 688.210238,551.1033 C688.210238,551.1033 686.670238,543.6633 693.850238,544.1743 C693.850238,544.1743 700.411238,546.4833 702.900238,549.2433 C702.900238,549.2433 701.960238,540.9643 707.400238,542.3833 C711.840238,543.5333 736.161238,569.4533 758.590238,576.0133 C761.951238,576.9933 765.270238,577.5443 768.470238,577.5043 C771.020238,585.6433 772.331238,593.4833 772.871238,600.6133 C773.570238,609.6433 773.041238,617.5333 772.270238,623.4033" id="Fill-1151" fill="#FF777B"></path>
                <path d="M414.730738,582.6533 C399.320738,581.6743 386.280738,579.7633 386.280738,579.7633 L380.590738,546.6333 L414.730738,582.6533 Z" id="Fill-1152" fill="#76AD80"></path>
                <polygon id="Fill-1153" fill="#94C39F" points="279.460738 633.2832 276.430738 631.5042 230.140738 593.4532 239.540738 581.2232 247.600738 570.7332"></polygon>
                <path d="M181.490538,608.1738 L181.150538,607.8938 C181.150538,607.8938 188.050538,602.5138 191.620538,600.0138 C188.880538,603.4338 184.540538,606.3628 181.490538,608.1738" id="Fill-1154" fill="#94C0FE"></path>
                <polygon id="Fill-1155" fill="#6FA2FB" points="239.540738 581.2236 220.310738 606.2436 219.190738 563.1836"></polygon>
                <polygon id="Fill-1156" fill="#6FA2FB" points="431.340638 686.9834 405.650638 701.9934 406.940638 651.4334"></polygon>
                <path d="M446.950438,262.5732 L445.160438,268.7332 L440.770438,283.8132 C440.770438,283.8132 440.770438,283.8232 440.760438,283.8232 C437.350438,290.4642 433.140438,293.7942 429.180438,295.3442 L424.660438,251.7832 C430.720438,257.9242 438.320438,261.9532 446.950438,262.5732" id="Fill-1157" fill="#6FA2FB"></path>
                <path d="M88.6404383,115.1738 L74.4504383,136.6128 L73.0404383,99.7428 C79.8304383,106.3538 85.6904383,112.2028 88.6404383,115.1738" id="Fill-1158" fill="#94C0FE"></path>
                <path d="M656.900138,268.7539 C654.531138,272.2329 649.890138,277.0939 645.451138,281.4429 C644.150138,282.7139 642.871138,283.9429 641.661138,285.0729 L636.610138,273.2639 L632.090138,262.6839 L656.900138,268.7539 Z" id="Fill-1159" fill="#94C0FE"></path>
                <path d="M134.730738,127.0938 L131.470738,204.5638 L126.610738,201.2338 L129.860738,123.9338 C131.440738,124.9638 133.070738,126.0138 134.730738,127.0938" id="Fill-1160" fill="#FDEFE2"></path>
                <path d="M215.980738,178.5332 L169.660738,230.7332 L165.500738,227.8842 L211.650738,175.8742 C213.100738,176.7732 214.540738,177.6532 215.980738,178.5332" id="Fill-1161" fill="#FDEFE2"></path>
                <path d="M266.930438,208.124 L246.760438,283.573 L242.390438,280.573 L262.400438,205.703 C263.880438,206.514 265.400438,207.313 266.930438,208.124" id="Fill-1162" fill="#FDEFE2"></path>
                <path d="M380.550538,259.7637 L302.550538,491.6437 C300.830538,491.5037 299.110538,491.3637 297.410538,491.2137 L375.910538,257.8437 C377.480538,258.4927 379.030538,259.1337 380.550538,259.7637" id="Fill-1163" fill="#FDEFE2"></path>
                <path d="M435.330838,291.3438 L367.210838,490.9838 C365.390838,491.2138 363.559838,491.4238 361.710838,491.6138 L428.610838,295.5638 C430.809838,294.7828 433.120838,293.4738 435.330838,291.3438" id="Fill-1164" fill="#FDEFE2"></path>
                <path d="M482.790738,289.6533 C484.439738,289.3743 486.160738,289.0533 487.930738,288.6933 C486.359738,305.1533 483.880738,332.7543 481.740738,357.0333 C479.990738,357.5933 478.269738,358.1533 476.580738,358.6933 C477.410738,349.3033 478.580738,336.1633 479.760738,322.9933 C481.140738,307.7143 482.100738,297.0733 482.790738,289.6533" id="Fill-1165" fill="#FDEFE2"></path>
                <path d="M558.550538,330.7031 C556.970538,331.2831 555.390538,331.8531 553.810538,332.4331 L540.330538,273.5331 C541.910538,272.9931 543.500538,272.4431 545.080538,271.8931 L558.550538,330.7031 Z" id="Fill-1166" fill="#FDEFE2"></path>
                <path d="M616.090638,307.4434 C614.600638,308.1334 613.069638,308.8434 611.490638,309.5534 L578.650638,259.6244 C580.270638,259.0044 581.860638,258.3834 583.430638,257.7834 L583.440638,257.7834 L616.090638,307.4434 Z" id="Fill-1167" fill="#FDEFE2"></path>
                <path d="M319.900638,677.1436 C318.060638,679.9736 315.390638,681.5636 312.200638,681.7536 C311.790638,681.7836 311.370638,681.7936 310.950638,681.7936 C283.700638,681.8036 239.810638,631.0336 220.150638,606.4436 L223.310638,602.3336 C242.160638,625.9436 285.690638,676.7936 310.840638,676.7936 C311.200638,676.7936 311.550638,676.7836 311.910638,676.7636 C313.520638,676.6736 314.730638,675.9236 315.720638,674.4036 C328.490638,654.8636 293.330638,544.1836 273.630638,488.5836 C275.440638,488.8236 277.280638,489.0536 279.150638,489.2836 C285.110638,506.3036 294.740638,534.5936 303.430638,563.9736 C322.120638,627.1936 327.660638,665.2736 319.900638,677.1436" id="Fill-1168" fill="#FDEFE2"></path>
                <path d="M403.433338,196.5742 C403.181338,196.5742 402.929338,196.4792 402.735338,196.2902 C398.669338,192.3252 394.303338,196.1522 394.120338,196.3162 C393.709338,196.6852 393.077338,196.6512 392.708338,196.2432 C392.339338,195.8342 392.370338,195.2042 392.778338,194.8342 C394.808338,192.9922 399.793338,190.6272 404.131338,194.8582 C404.527338,195.2442 404.535338,195.8772 404.149338,196.2722 C403.953338,196.4732 403.693338,196.5742 403.433338,196.5742" id="Fill-1169" fill="#272727"></path>
                <path d="M464.532038,188.2754 C464.510038,188.2754 464.487038,188.2744 464.465038,188.2734 L415.014038,184.9624 C414.463038,184.9244 414.046038,184.4484 414.083038,183.8974 C414.120038,183.3464 414.590038,182.9364 415.148038,182.9654 L464.597038,186.2774 C465.149038,186.3144 465.566038,186.7914 465.529038,187.3414 C465.493038,187.8704 465.053038,188.2754 464.532038,188.2754" id="Fill-1170" fill="#272727"></path>
                <path d="M474.153138,173.3008 C469.399138,173.3008 465.531138,179.5698 465.531138,187.2758 C465.531138,194.9808 469.399138,201.2488 474.153138,201.2488 C478.907138,201.2488 482.774138,194.9808 482.774138,187.2758 C482.774138,179.5698 478.907138,173.3008 474.153138,173.3008 M474.153138,203.2488 C468.296138,203.2488 463.531138,196.0828 463.531138,187.2758 C463.531138,178.4668 468.296138,171.3008 474.153138,171.3008 C480.009138,171.3008 484.774138,178.4668 484.774138,187.2758 C484.774138,196.0828 480.009138,203.2488 474.153138,203.2488" id="Fill-1171" fill="#272727"></path>
                <path d="M493.730238,169.6436 C491.400238,169.6436 489.241238,170.7736 487.491238,172.6936 C487.820238,173.3436 488.130238,173.9836 488.420238,174.6236 C489.890238,172.7536 491.730238,171.6436 493.730238,171.6436 C498.480238,171.6436 502.350238,177.9136 502.350238,185.6236 C502.350238,190.1236 501.031238,194.1336 498.980238,196.6836 C499.390238,197.0836 499.720238,197.5536 499.960238,198.1636 C500.001238,198.2536 500.031238,198.3536 500.060238,198.4436 C502.661238,195.5336 504.350238,190.8636 504.350238,185.6236 C504.350238,176.8136 499.590238,169.6436 493.730238,169.6436" id="Fill-1172" fill="#272727"></path>
                <path d="M492.876738,188.2754 L483.773738,188.2754 C483.221738,188.2754 482.773738,187.8284 482.773738,187.2754 C482.773738,186.7224 483.221738,186.2754 483.773738,186.2754 L492.876738,186.2754 C493.429738,186.2754 493.876738,186.7224 493.876738,187.2754 C493.876738,187.8284 493.429738,188.2754 492.876738,188.2754" id="Fill-1173" fill="#272727"></path>
                <path d="M470.195038,189.7422 C469.959038,189.7422 469.721038,189.6582 469.531038,189.4892 C469.119038,189.1232 469.081038,188.4932 469.446038,188.0802 C471.046038,186.2742 475.199038,183.4872 479.468038,185.8732 C479.951038,186.1422 480.124038,186.7522 479.854038,187.2332 C479.586038,187.7162 478.975038,187.8872 478.494038,187.6192 C474.570038,185.4302 471.089038,189.2442 470.942038,189.4082 C470.745038,189.6292 470.470038,189.7422 470.195038,189.7422" id="Fill-1174" fill="#272727"></path>
                <path d="M477.590638,221.124 C476.700638,223.044 475.180638,224.834 472.960638,226.613 C472.940638,226.624 472.930638,226.644 472.910638,226.653 C468.830638,229.924 464.280638,231.684 459.990638,231.684 C459.670638,231.684 459.350638,231.674 459.030638,231.653 C454.870638,231.394 451.330638,229.443 449.070638,226.163 C447.650638,224.094 446.800638,221.634 446.550638,219.033 C446.340638,216.804 446.580638,214.483 447.280638,212.214 C448.650638,207.804 451.850638,201.884 456.720638,198.514 C457.910638,197.684 458.980638,197.493 459.890638,197.943 L459.900638,197.943 C460.510638,198.264 460.880638,198.813 461.090638,199.144 C461.680638,200.044 462.250638,200.964 462.820638,201.874 C464.160638,204.023 465.540638,206.254 467.160638,208.214 C468.650638,210.023 470.500638,211.594 472.650638,212.894 C473.050638,213.134 473.510638,213.363 473.990638,213.594 C475.700638,214.443 477.840638,215.493 478.210638,217.964 C478.350638,218.924 478.150638,219.953 477.590638,221.124" id="Fill-1175" fill="#272727"></path>
                <path d="M472.960738,226.6133 C472.939738,226.6243 472.930738,226.6433 472.910738,226.6533 C468.830738,229.9243 464.280738,231.6833 459.990738,231.6833 C459.670738,231.6833 459.350738,231.6743 459.030738,231.6533 C454.870738,231.3933 451.330738,229.4433 449.070738,226.1633 C447.650738,224.0933 446.800738,221.6343 446.550738,219.0333 C449.370738,217.0533 453.060738,215.8433 457.090738,215.8433 C465.000738,215.8433 471.580738,220.4833 472.960738,226.6133" id="Fill-1176" fill="#FF777B"></path>
                <path d="M458.871738,198.7093 C458.417738,198.7093 457.888738,198.9183 457.292738,199.3343 C452.629738,202.5603 449.557738,208.2563 448.235738,212.5103 C447.577738,214.6443 447.345738,216.8083 447.545738,218.9393 C447.782738,221.3993 448.594738,223.7023 449.895738,225.5973 C451.976738,228.6183 455.243738,230.4153 459.092738,230.6553 C459.392738,230.6753 459.691738,230.6833 459.990738,230.6833 C464.042738,230.6833 468.401738,228.9803 472.267738,225.8873 L472.392738,225.7873 C474.471738,224.1113 475.874738,222.4473 476.683738,220.7033 L476.688738,220.6923 C477.156738,219.7123 477.331738,218.8663 477.221738,218.1073 C476.931738,216.1713 475.225738,215.3233 473.575738,214.5043 C473.086738,214.2683 472.587738,214.0223 472.135738,213.7513 C469.871738,212.3823 467.939738,210.7333 466.388738,208.8493 C464.766738,206.8863 463.394738,204.6853 462.067738,202.5563 L461.715738,201.9933 C461.234738,201.2233 460.751738,200.4503 460.253738,199.6913 C460.122738,199.4843 459.868738,199.0863 459.498738,198.8643 L459.446738,198.8403 C459.271738,198.7533 459.079738,198.7093 458.871738,198.7093 L458.871738,198.7093 Z M459.990738,232.6833 C459.648738,232.6833 459.307738,232.6733 458.966738,232.6513 C454.492738,232.3723 450.685738,230.2693 448.247738,226.7303 C446.754738,224.5553 445.823738,221.9273 445.554738,219.1293 C445.329738,216.7323 445.588738,214.3073 446.324738,211.9193 C447.746738,207.3433 451.073738,201.2053 456.151738,197.6913 C457.872738,196.4893 459.220738,196.5873 460.102738,196.9433 L460.136738,196.9433 L460.365738,197.0573 C461.142738,197.4663 461.611738,198.0993 461.934738,198.6063 C462.431738,199.3663 462.922738,200.1513 463.411738,200.9323 L463.765738,201.4993 C465.057738,203.5723 466.392738,205.7153 467.931738,207.5773 C469.339738,209.2883 471.101738,210.7883 473.167738,212.0383 C473.545738,212.2643 473.994738,212.4863 474.423738,212.6923 C476.274738,213.6123 478.754738,214.8433 479.199738,217.8153 C479.368738,218.9813 479.138738,220.2023 478.494738,221.5503 C477.548738,223.5903 475.948738,225.4963 473.604738,227.3793 L473.470738,227.4863 C469.262738,230.8393 464.478738,232.6833 459.990738,232.6833 L459.990738,232.6833 Z" id="Fill-1177" fill="#272727"></path>
                <path d="M440.334738,195.624 C440.334738,198.858 437.712738,201.48 434.478738,201.48 C431.243738,201.48 428.621738,198.858 428.621738,195.624 C428.621738,192.39 431.243738,189.768 434.478738,189.768 C437.712738,189.768 440.334738,192.39 440.334738,195.624" id="Fill-1178" fill="#FF777B"></path>
                <path d="M467.282938,172.3955 C464.963938,174.7145 461.851938,175.3625 460.331938,173.8425 C458.811938,172.3225 459.459938,169.2105 461.779938,166.8915 C464.097938,164.5725 467.210938,163.9245 468.729938,165.4445 C470.249938,166.9645 469.601938,170.0765 467.282938,172.3955" id="Fill-1179" fill="#272727"></path>
                <path d="M194.570538,599.3232 C194.340538,599.6932 194.100538,600.0632 193.840538,600.4242 C193.760538,599.4832 193.710538,598.9032 193.710538,598.8032 C193.710538,598.6242 192.870538,599.1432 191.620538,600.0132 C192.080538,599.4432 192.500538,598.8742 192.850538,598.2832 C193.140538,597.8132 193.750538,597.6632 194.230538,597.9432 C194.700538,598.2332 194.850538,598.8442 194.570538,599.3232" id="Fill-1180" fill="#FDEFE2"></path>
                <path d="M336.989538,493.9629 C324.150538,493.9629 310.031538,493.2279 294.652538,491.7539 C254.348538,487.8909 219.989538,480.1069 219.647538,480.0279 C219.109538,479.9049 218.772538,479.3689 218.895538,478.8309 C219.018538,478.2929 219.554538,477.9519 220.093538,478.0789 C221.455538,478.3899 356.984538,508.8419 408.318538,478.1949 C408.791538,477.9109 409.406538,478.0669 409.689538,478.5409 C409.972538,479.0159 409.817538,479.6289 409.343538,479.9119 C393.677538,489.2659 369.426538,493.9629 336.989538,493.9629" id="Fill-1181" fill="#272727"></path>
                <path d="M279.461638,634.2832 C279.097638,634.2832 278.746638,634.0842 278.569638,633.7372 L246.709638,571.1872 C246.458638,570.6952 246.654638,570.0932 247.146638,569.8432 C247.638638,569.5912 248.240638,569.7872 248.491638,570.2792 L280.351638,632.8292 C280.602638,633.3212 280.406638,633.9242 279.914638,634.1742 C279.769638,634.2482 279.613638,634.2832 279.461638,634.2832" id="Fill-1182" fill="#272727"></path>
                <path d="M386.279538,580.7637 C385.801538,580.7637 385.378538,580.4197 385.295538,579.9327 L379.605538,546.8027 C379.511538,546.2587 379.877538,545.7427 380.421538,545.6487 C380.967538,545.5537 381.482538,545.9197 381.575538,546.4647 L387.265538,579.5947 C387.359538,580.1387 386.993538,580.6567 386.449538,580.7487 C386.392538,580.7587 386.335538,580.7637 386.279538,580.7637" id="Fill-1183" fill="#272727"></path>
                <path d="M459.948038,138.3389 C458.715038,138.3389 457.408038,138.1789 456.026038,137.8149 C455.492038,137.6739 455.173038,137.1269 455.313038,136.5929 C455.453038,136.0599 455.998038,135.7399 456.535038,135.8809 C466.145038,138.4099 471.744038,129.5109 472.351038,128.4879 L474.071038,129.5079 C473.472038,130.5189 468.553038,138.3379 459.948038,138.3389" id="Fill-1184" fill="#272727"></path>
                <path d="M929.410938,362.9639 C929.309938,365.3339 928.760938,367.6039 927.819938,369.6339 C926.720938,372.0039 925.090938,374.0329 923.059938,375.5139 C919.840938,377.8539 915.849938,378.5039 911.840938,377.3629 C911.530938,377.2739 911.229938,377.1739 910.930938,377.0639 C910.470938,376.9029 910.019938,376.7139 909.569938,376.5039 C906.050938,374.8939 902.870938,371.9529 900.430938,368.0039 C900.420938,367.9929 900.410938,367.9639 900.399938,367.9529 C898.899938,365.5329 898.069938,363.3339 897.870938,361.2339 C897.729938,359.9429 897.889938,358.9029 898.340938,358.0439 C899.510938,355.8439 901.880938,355.5639 903.780938,355.3339 C904.309938,355.2829 904.819938,355.2139 905.280938,355.1239 C907.740938,354.6129 910.000938,353.7539 912.010938,352.5539 C914.200938,351.2429 916.240938,349.6039 918.220938,348.0239 C919.069938,347.3539 919.910938,346.6839 920.769938,346.0329 C921.080938,345.7939 921.609938,345.3939 922.290938,345.2939 L922.300938,345.3039 C923.309938,345.1839 924.250938,345.7139 925.099938,346.8939 C927.910938,350.8039 929.130938,355.9429 929.380938,360.2029 C929.439938,361.1739 929.450938,362.1039 929.410938,362.9639" id="Fill-1185" fill="#272727"></path>
                <path d="M929.410938,362.9639 C929.309938,365.3339 928.760938,367.6039 927.819938,369.6339 C926.720938,372.0039 925.090938,374.0329 923.059938,375.5139 C919.840938,377.8539 915.849938,378.5039 911.840938,377.3629 C911.530938,377.2739 911.229938,377.1739 910.930938,377.0639 C910.470938,376.9029 910.019938,376.7139 909.569938,376.5039 C909.439938,371.0939 913.040938,365.3839 919.069938,362.2539 C922.479938,360.5039 926.109938,359.8629 929.380938,360.2029 C929.439938,361.1739 929.450938,362.1039 929.410938,362.9639" id="Fill-1186" fill="#FD5C63"></path>
                <path d="M918.849338,324.5606 C920.619338,327.6256 923.439338,329.3106 925.148338,328.3246 C926.857338,327.3366 926.807338,324.0526 925.037338,320.9886 C923.268338,317.9226 920.449338,316.2386 918.740338,317.2246 C917.031338,318.2116 917.079338,321.4966 918.849338,324.5606" id="Fill-1187" fill="#272727"></path>
                <path d="M915.226338,331.4473 C915.226338,333.0163 913.955338,334.2883 912.385338,334.2883 C910.816338,334.2883 909.543338,333.0163 909.543338,331.4473 C909.543338,329.8783 910.816338,328.6053 912.385338,328.6053 C913.955338,328.6053 915.226338,329.8783 915.226338,331.4473" id="Fill-1188" fill="#272727"></path>
                <path d="M945.820038,355.168 C945.820038,357.587 943.859038,359.547 941.440038,359.547 C939.022038,359.547 937.061038,357.587 937.061038,355.168 C937.061038,352.749 939.022038,350.788 941.440038,350.788 C943.859038,350.788 945.820038,352.749 945.820038,355.168" id="Fill-1189" fill="#FFCD48"></path>
                <path d="M901.286838,367.4893 C903.896838,371.7013 907.437838,374.7673 911.260838,376.1243 C911.541838,376.2223 911.826838,376.3143 912.114838,376.3963 C915.828838,377.4573 919.504838,376.8543 922.476838,374.7043 C924.333838,373.3533 925.869838,371.4553 926.915838,369.2143 C927.815838,367.2743 928.320838,365.1583 928.414838,362.9233 C928.590838,358.4723 927.598838,352.0773 924.284838,347.4823 C923.668838,346.6193 923.043838,346.2183 922.417838,346.2943 L922.343838,346.3023 C921.928838,346.3923 921.563838,346.6773 921.383838,346.8183 C920.659838,347.3683 919.954838,347.9273 919.252838,348.4853 L918.714838,348.9123 C916.750838,350.4783 914.719838,352.0963 912.527838,353.4083 C910.436838,354.6643 908.064838,355.5713 905.477838,356.1043 C904.961838,356.2093 904.406838,356.2753 903.885838,356.3313 C902.036838,356.5543 900.145838,356.7843 899.223838,358.5153 C898.866838,359.1903 898.748838,360.0453 898.862838,361.1253 L898.864838,361.1373 C899.042838,363.0423 899.802838,365.0673 901.186838,367.3283 L901.286838,367.4893 Z M915.683838,378.9113 C914.330838,378.9113 912.949838,378.7153 911.566838,378.3203 C911.238838,378.2263 910.914838,378.1233 910.593838,378.0103 C906.366838,376.5103 902.478838,373.1763 899.634838,368.6193 L899.543838,368.4723 C897.957838,365.9093 897.084838,363.5723 896.873838,361.3293 C896.717838,359.8443 896.907838,358.6183 897.455838,357.5783 C898.870838,354.9243 901.618838,354.5913 903.625838,354.3483 C904.145838,354.2923 904.643838,354.2333 905.076838,354.1443 C907.438838,353.6583 909.600838,352.8333 911.499838,351.6923 C913.576838,350.4493 915.555838,348.8733 917.468838,347.3483 L918.009838,346.9193 C918.722838,346.3523 919.437838,345.7853 920.161838,345.2343 C920.624838,344.8723 921.279838,344.4313 922.147838,344.3063 L922.412838,344.2693 L922.456838,344.2863 C923.381838,344.2663 924.695838,344.6173 925.909838,346.3163 C929.517838,351.3203 930.601838,358.2183 930.412838,363.0043 C930.307838,365.5063 929.741838,367.8783 928.728838,370.0573 C927.538838,372.6073 925.783838,374.7723 923.650838,376.3223 C921.286838,378.0343 918.548838,378.9113 915.683838,378.9113 L915.683838,378.9113 Z" id="Fill-1190" fill="#272727"></path>
                <path d="M986.237038,358.2344 C985.989038,358.2344 985.740038,358.1424 985.547038,357.9584 C981.273038,353.8794 973.734038,358.0624 973.659038,358.1044 C973.176038,358.3774 972.569038,358.2064 972.297038,357.7264 C972.025038,357.2464 972.193038,356.6364 972.674038,356.3644 C973.034038,356.1594 981.580038,351.4064 986.927038,356.5104 C987.327038,356.8924 987.341038,357.5254 986.961038,357.9244 C986.764038,358.1304 986.501038,358.2344 986.237038,358.2344" id="Fill-1191" fill="#272727"></path>
                <path d="M1011.94504,366.1523 C1005.73104,366.1523 1002.20304,363.4723 1002.03304,363.3393 C1001.59704,363.0013 1001.51804,362.3733 1001.85804,361.9363 C1002.19604,361.5033 1002.82104,361.4233 1003.25804,361.7583 C1003.30204,361.7923 1007.60604,365.0043 1014.99504,363.9243 C1022.09404,362.8803 1033.48704,357.5783 1047.43904,338.2523 C1047.76204,337.8023 1048.38604,337.7023 1048.83504,338.0263 C1049.28304,338.3493 1049.38304,338.9743 1049.06004,339.4223 C1037.49704,355.4403 1026.10204,364.3543 1015.19404,365.9173 C1014.04304,366.0813 1012.95804,366.1523 1011.94504,366.1523" id="Fill-1192" fill="#272727"></path>
                <path d="M1079.69024,488.4844 C1079.44724,488.4844 1079.20424,488.3964 1079.01124,488.2184 C1062.75424,473.1894 1015.09324,448.6624 1014.61424,448.4164 C1014.12224,448.1644 1013.92824,447.5614 1014.18024,447.0704 C1014.43224,446.5794 1015.03724,446.3844 1015.52624,446.6364 C1017.49524,447.6464 1063.91324,471.5364 1080.36924,486.7504 C1080.77424,487.1254 1080.79924,487.7574 1080.42424,488.1634 C1080.22724,488.3764 1079.95924,488.4844 1079.69024,488.4844" id="Fill-1193" fill="#272727"></path>
                <path d="M758.220438,282.9834 C758.220438,282.9834 757.330438,287.6034 755.310438,294.4734 L755.300438,294.4534 C755.300438,294.4534 754.100438,293.2234 752.510438,290.9434 C755.930438,286.1634 758.220438,282.9834 758.220438,282.9834" id="Fill-1194" fill="#272727"></path>
                <path d="M737.220438,333.5234 C731.660438,341.1334 724.830438,347.5534 716.570438,350.9134 C716.570438,350.9134 719.310438,340.3134 727.200438,327.3434 C730.170438,330.1434 733.500438,332.2734 737.220438,333.5234" id="Fill-1195" fill="#272727"></path>
                <path d="M645.450938,281.4434 C645.330938,285.9834 643.979938,290.5134 643.979938,290.5134 L641.660938,285.0734 C642.870938,283.9434 644.149938,282.7144 645.450938,281.4434" id="Fill-1196" fill="#272727"></path>
                <path d="M768.470438,577.5039 C765.270438,577.5439 761.950438,576.9929 758.590438,576.0139 C760.870438,569.0539 763.500438,564.8039 763.500438,564.8039 C765.531438,569.0729 767.170438,573.3339 768.470438,577.5039" id="Fill-1197" fill="#272727"></path>
                <path d="M772.270238,623.4033 C771.371238,630.2733 770.140238,634.3933 770.140238,634.3933 C766.650238,630.3033 763.911238,626.1833 761.791238,622.1033 C766.570238,622.7333 770.270238,623.1743 772.270238,623.4033" id="Fill-1198" fill="#272727"></path>
                <path d="M807.920638,333.4639 C807.510638,336.1529 806.740638,338.9739 805.620638,341.7939 C800.899638,353.7029 791.560638,361.1739 784.760638,358.4839 C777.960638,355.7829 776.280638,343.9429 781.010638,332.0329 C783.640638,325.3939 787.700638,320.1439 791.960638,317.2539 L807.920638,333.4639 Z" id="Fill-1199" fill="#94C0FE"></path>
                <path d="M865.880638,464.3838 C864.240638,468.5138 862.050638,472.1128 859.600638,474.9438 L840.080638,458.0238 C840.420638,456.8938 840.819638,455.7538 841.270638,454.6128 C845.990638,442.7028 855.330638,435.2338 862.130638,437.9338 C868.930638,440.6238 870.609638,452.4638 865.880638,464.3838" id="Fill-1200" fill="#94C0FE"></path>
                <path d="M1025.58084,482.6533 C1023.18084,485.3433 1020.05084,487.9033 1016.38084,490.0233 C1005.28084,496.4243 993.319838,496.4933 989.670838,490.1533 C986.010838,483.8233 992.040838,473.4933 1003.14084,467.0843 C1006.09084,465.3833 1009.10084,464.1333 1011.99084,463.3343 C1016.56984,469.3633 1021.10984,475.8533 1025.58084,482.6533" id="Fill-1201" fill="#94C0FE"></path>
                <path d="M852.740938,615.9834 C852.740938,619.2434 852.359938,622.3434 851.660938,625.1534 L828.120938,627.8234 C826.939938,624.3534 826.260938,620.3034 826.260938,615.9834 C826.260938,603.1634 832.189938,592.7734 839.500938,592.7734 C846.819938,592.7734 852.740938,603.1634 852.740938,615.9834" id="Fill-1202" fill="#94C0FE"></path>
                <path d="M1043.64044,664.8838 C1036.10044,666.7238 1028.68044,668.1038 1021.41144,669.0938 C1019.56044,665.8138 1018.13044,661.8228 1017.36044,657.4128 C1015.14044,644.7938 1019.19044,633.5328 1026.39044,632.2738 C1033.59044,631.0138 1041.23044,640.2238 1043.44044,652.8438 C1044.19044,657.1238 1044.22044,661.2538 1043.64044,664.8838" id="Fill-1203" fill="#94C0FE"></path>
                <path d="M941.440238,404.9736 L922.020238,434.6836 L920.300238,409.2836 C921.871238,409.3236 923.470238,409.2636 925.110238,409.0836 C929.920238,408.5636 935.951238,407.2236 941.440238,404.9736" id="Fill-1204" fill="#FD5C63"></path>
                <path d="M885.010538,554.8633 L884.986538,554.8633 C884.434538,554.8493 883.997538,554.3913 884.010256,553.8393 C885.125538,507.5983 915.942538,444.6013 916.253538,443.9703 C916.497538,443.4743 917.095538,443.2713 917.592538,443.5163 C918.087538,443.7603 918.291538,444.3603 918.046538,444.8553 C917.738538,445.4823 887.114538,508.0913 886.010538,553.8873 C885.996538,554.4313 885.552538,554.8633 885.010538,554.8633" id="Fill-1205" fill="#272727"></path>
                <path d="M763.499738,565.8037 C762.987738,565.8037 762.551738,565.4127 762.504738,564.8937 C762.454738,564.3437 762.860738,563.8577 763.410738,563.8077 L900.525738,551.4157 L948.506738,482.5017 C948.820738,482.0487 949.444738,481.9347 949.897738,482.2527 C950.351738,482.5687 950.463738,483.1917 950.146738,483.6447 L901.635738,553.3247 L763.590738,565.7997 C763.560738,565.8027 763.529738,565.8037 763.499738,565.8037" id="Fill-1206" fill="#272727"></path>
                <path d="M874.039838,623.6133 C873.535838,623.6133 873.102838,623.2343 873.046838,622.7213 C872.986838,622.1733 873.382838,621.6793 873.932838,621.6193 C874.500838,621.5563 930.930838,615.3233 939.576838,609.4703 C948.302838,603.5643 997.055838,542.6153 997.546838,542.0013 C997.891838,541.5703 998.522838,541.4993 998.951838,541.8433 C999.383838,542.1883 999.453838,542.8173 999.108838,543.2493 C997.094838,545.7693 949.672838,605.0513 940.697838,611.1273 C931.643838,617.2553 876.492838,623.3503 874.148838,623.6073 C874.112838,623.6113 874.075838,623.6133 874.039838,623.6133" id="Fill-1207" fill="#272727"></path>
                <path d="M863.799538,866.3232 C863.299538,866.3232 862.867538,865.9492 862.807538,865.4402 C860.682538,847.4922 869.706538,815.3022 889.632538,769.7672 C904.437538,735.9332 920.066538,706.9632 920.222538,706.6752 C920.486538,706.1892 921.090538,706.0112 921.577538,706.2702 C922.064538,706.5332 922.244538,707.1402 921.982538,707.6262 C921.360538,708.7762 859.814538,823.1602 864.793538,865.2062 C864.858538,865.7542 864.466538,866.2512 863.917538,866.3162 C863.878538,866.3212 863.838538,866.3232 863.799538,866.3232" id="Fill-1208" fill="#272727"></path>
                <path d="M962.972438,915.5752 C962.802438,915.5752 962.630438,915.5322 962.473438,915.4412 C961.994438,915.1652 961.830438,914.5542 962.107438,914.0752 L1023.21444,808.1632 C1023.49144,807.6842 1024.10244,807.5202 1024.58044,807.7972 C1025.05944,808.0732 1025.22344,808.6842 1024.94744,809.1632 L963.839438,915.0752 C963.654438,915.3952 963.318438,915.5752 962.972438,915.5752" id="Fill-1209" fill="#272727"></path>
                <path d="M1012.63064,907.7139 C1012.51664,907.7139 1012.40064,907.6939 1012.28664,907.6529 L975.028638,894.0239 C974.510638,893.8329 974.243638,893.2589 974.433638,892.7399 C974.622638,892.2219 975.197638,891.9569 975.716638,892.1449 L1012.97464,905.7749 C1013.49264,905.9649 1013.75964,906.5389 1013.56964,907.0579 C1013.42164,907.4629 1013.03864,907.7139 1012.63064,907.7139" id="Fill-1210" fill="#272727"></path>
                <polygon id="Fill-1211" fill="#FDEFE2" points="1078.59064 873.8535 1055.91064 885.1535 1037.36064 802.0235 1062.33064 789.5335"></polygon>
                <path d="M1066.22044,1025.8535 L1095.32044,941.1735 L1073.93044,932.2635 C1067.55044,948.0335 1050.06044,993.5235 1041.42044,1016.0335 L1066.22044,1025.8535 Z" id="Fill-1212" fill="#FDEFE2"></path>
                <path d="M714.678438,572.1543 C714.474438,572.1543 714.269438,572.0923 714.091438,571.9633 L683.740438,549.8953 C683.292438,549.5713 683.194438,548.9453 683.519438,548.4993 C683.842438,548.0513 684.467438,547.9533 684.915438,548.2783 L715.267438,570.3453 C715.714438,570.6703 715.813438,571.2963 715.488438,571.7423 C715.292438,572.0113 714.988438,572.1543 714.678438,572.1543" id="Fill-1213" fill="#FDEFE2"></path>
                <path d="M719.471438,562.0674 C719.242438,562.0674 719.011438,561.9894 718.823438,561.8294 L700.053438,545.8544 C699.633438,545.4964 699.582438,544.8654 699.940438,544.4444 C700.299438,544.0224 700.930438,543.9734 701.350438,544.3314 L720.119438,560.3054 C720.539438,560.6644 720.590438,561.2954 720.233438,561.7154 C720.034438,561.9484 719.753438,562.0674 719.471438,562.0674" id="Fill-1214" fill="#FDEFE2"></path>
                <path d="M725.261438,600.4063 C725.128438,600.4063 724.991438,600.3803 724.862438,600.3223 L709.686438,593.6893 C709.180438,593.4693 708.949438,592.8793 709.170438,592.3733 C709.391438,591.8683 709.980438,591.6333 710.487438,591.8573 L725.662438,598.4903 C726.168438,598.7113 726.400438,599.3013 726.178438,599.8063 C726.014438,600.1823 725.647438,600.4063 725.261438,600.4063" id="Fill-1215" fill="#FDEFE2"></path>
                <path d="M726.290738,173.2188 C725.931738,173.2188 725.584738,173.0248 725.404738,172.6848 C725.146738,172.1968 725.334738,171.5918 725.823738,171.3338 L757.754738,154.5028 C758.241738,154.2458 758.847738,154.4338 759.104738,154.9218 C759.362738,155.4098 759.175738,156.0148 758.686738,156.2728 L726.755738,173.1038 C726.606738,173.1818 726.447738,173.2188 726.290738,173.2188" id="Fill-1216" fill="#272727"></path>
                <path d="M686.108138,164.4971 C685.809138,164.4971 685.513138,164.3631 685.316138,164.1081 L663.235138,135.5551 C662.897138,135.1181 662.977138,134.4901 663.415138,134.1521 C663.850138,133.8141 664.478138,133.8951 664.817138,134.3321 L686.898138,162.8861 C687.236138,163.3221 687.156138,163.9501 686.718138,164.2881 C686.537138,164.4291 686.321138,164.4971 686.108138,164.4971" id="Fill-1217" fill="#272727"></path>
                <path d="M706.591538,160.4834 C706.508538,160.4834 706.424538,160.4734 706.340538,160.4524 C705.806538,160.3134 705.484538,159.7684 705.621538,159.2334 L714.629538,124.2814 C714.767538,123.7474 715.315538,123.4244 715.848538,123.5624 C716.382538,123.7014 716.704538,124.2464 716.567538,124.7814 L707.559538,159.7334 C707.443538,160.1834 707.036538,160.4834 706.591538,160.4834" id="Fill-1218" fill="#272727"></path>
                <path d="M227.606738,51.6855 C227.606738,58.1065 222.401738,63.3115 215.980738,63.3115 C209.559738,63.3115 204.354738,58.1065 204.354738,51.6855 C204.354738,45.2645 209.559738,40.0595 215.980738,40.0595 C222.401738,40.0595 227.606738,45.2645 227.606738,51.6855" id="Fill-1219" fill="#FDEFE1"></path>
                <path d="M1106.94704,223.7637 C1106.94704,230.1847 1101.74204,235.3897 1095.32004,235.3897 C1088.89904,235.3897 1083.69404,230.1847 1083.69404,223.7637 C1083.69404,217.3427 1088.89904,212.1377 1095.32004,212.1377 C1101.74204,212.1377 1106.94704,217.3427 1106.94704,223.7637" id="Fill-1220" fill="#94C0FE"></path>
                <path d="M536.487038,63.3115 C536.487038,69.7325 531.282038,74.9385 524.861038,74.9385 C518.440038,74.9385 513.235038,69.7325 513.235038,63.3115 C513.235038,56.8905 518.440038,51.6855 524.861038,51.6855 C531.282038,51.6855 536.487038,56.8905 536.487038,63.3115" id="Fill-1221" fill="#FF777B"></path>
                <path d="M736.888438,11.626 C736.888438,18.047 731.683438,23.252 725.262438,23.252 C718.841438,23.252 713.636438,18.047 713.636438,11.626 C713.636438,5.205 718.841438,-2.27373675e-13 725.262438,-2.27373675e-13 C731.683438,-2.27373675e-13 736.888438,5.205 736.888438,11.626" id="Fill-1222" fill="#94C39F"></path>
                <path d="M215.907038,327.3438 C215.907038,333.7648 210.701038,338.9698 204.281038,338.9698 C197.860038,338.9698 192.654038,333.7648 192.654038,327.3438 C192.654038,320.9228 197.860038,315.7178 204.281038,315.7178 C210.701038,315.7178 215.907038,320.9228 215.907038,327.3438" id="Fill-1223" fill="#FF777B"></path>
                <path d="M1204.38844,499.1387 C1204.38844,505.5597 1199.18344,510.7647 1192.76144,510.7647 C1186.34044,510.7647 1181.13544,505.5597 1181.13544,499.1387 C1181.13544,492.7177 1186.34044,487.5127 1192.76144,487.5127 C1199.18344,487.5127 1204.38844,492.7177 1204.38844,499.1387" id="Fill-1224" fill="#94C39F"></path>
                <path d="M873.747838,228.8809 C873.747838,235.3019 868.542838,240.5069 862.121838,240.5069 C855.699838,240.5069 850.494838,235.3019 850.494838,228.8809 C850.494838,222.4599 855.699838,217.2549 862.121838,217.2549 C868.542838,217.2549 873.747838,222.4599 873.747838,228.8809" id="Fill-1225" fill="#FFCD48"></path>
                <path d="M748.250738,313.9336 C745.319738,320.5736 741.680738,327.4336 737.220738,333.5236 C733.500738,332.2736 730.170738,330.1436 727.200738,327.3436 C723.950738,324.2936 721.120738,320.4536 718.680738,316.0836 L748.250738,313.9336 Z" id="Fill-1226" fill="#FF777B"></path>
                <path d="M772.270238,623.4033 C770.270238,623.1743 766.570238,622.7333 761.791238,622.1033 C759.730238,621.8343 757.460238,621.5133 755.041238,621.1743 L772.871238,600.6133 C773.570238,609.6433 773.041238,617.5333 772.270238,623.4033" id="Fill-1227" fill="#FF777B"></path>
                <polygon id="Fill-1228" fill="#FD5C63" points="1122.54074 829.584 1101.39074 837.344 1096.33074 816.094"></polygon>
                <polygon id="Fill-1229" fill="#FD5C63" points="1168.58084 983.9336 1120.39984 993.9036 1128.88084 969.5636"></polygon>
                <path d="M292.709738,316.0635 C292.530738,316.0635 292.350738,316.0155 292.187738,315.9165 C291.716738,315.6265 291.569738,315.0105 291.858738,314.5405 L303.972738,294.8205 C304.261738,294.3485 304.877738,294.2045 305.348738,294.4915 C305.818738,294.7815 305.965738,295.3965 305.676738,295.8675 L293.562738,315.5865 C293.373738,315.8945 293.045738,316.0635 292.709738,316.0635" id="Fill-1230" fill="#272727"></path>
                <path d="M61.2995383,157.4736 C61.1105383,157.4736 60.9185383,157.4196 60.7485383,157.3076 C60.2885383,157.0026 60.1615383,156.3816 60.4665383,155.9216 L96.2565383,101.8416 C96.5605383,101.3806 97.1805383,101.2536 97.6425383,101.5596 C98.1025383,101.8646 98.2295383,102.4856 97.9245383,102.9456 L62.1345383,157.0256 C61.9425383,157.3166 61.6235383,157.4736 61.2995383,157.4736" id="Fill-1231" fill="#272727"></path>
                <path d="M643.980238,291.5137 C643.592238,291.5137 643.223238,291.2857 643.060238,290.9067 L622.251238,242.2057 C622.034238,241.6987 622.270238,241.1117 622.778238,240.8937 C623.282238,240.6767 623.871238,240.9107 624.090238,241.4207 L644.900238,290.1207 C645.117238,290.6287 644.880238,291.2157 644.373238,291.4337 C644.245238,291.4887 644.112238,291.5137 643.980238,291.5137" id="Fill-1232" fill="#272727"></path>
                <path d="M446.950938,263.5732 L446.926938,263.5732 C433.775938,263.2622 424.312938,252.8922 423.915938,252.4512 C423.547938,252.0412 423.580938,251.4092 423.991938,251.0402 C424.402938,250.6702 425.034938,250.7052 425.403938,251.1142 C425.494938,251.2162 434.701938,261.2842 446.973938,261.5732 C447.525938,261.5872 447.962938,262.0452 447.949938,262.5962 C447.936938,263.1402 447.492938,263.5732 446.950938,263.5732" id="Fill-1233" fill="#272727"></path>
                <path d="M921.321038,410.2979 C920.718038,410.2979 920.346038,410.2849 920.264038,410.2819 C919.713038,410.2629 919.281038,409.7989 919.301038,409.2469 C919.321038,408.6959 919.732038,408.2629 920.337038,408.2839 C920.461038,408.2839 932.804038,408.6749 940.951038,404.1019 C941.429038,403.8319 942.042038,404.0019 942.312038,404.4849 C942.583038,404.9659 942.411038,405.5749 941.929038,405.8459 C934.634038,409.9419 924.590038,410.2979 921.321038,410.2979" id="Fill-1234" fill="#272727"></path>
                <path d="M1068.98024,702.7832 L1033.30024,667.1432 C1046.00124,664.6932 1059.07024,660.9932 1072.39024,655.7432 C1075.36024,668.5732 1073.43024,685.2232 1068.98024,702.7832" id="Fill-1235" fill="#F4BA38"></path>
                <path d="M991.979238,672.0967 C976.520238,672.0967 962.606238,670.5607 951.050238,668.5637 C918.935238,663.0127 897.596238,652.7967 897.384238,652.6947 C896.887238,652.4527 896.679238,651.8557 896.919238,651.3587 C897.160238,650.8627 897.755238,650.6557 898.255238,650.8937 C898.465238,650.9947 919.602238,661.1077 951.458238,666.6037 C980.826238,671.6697 1025.58324,673.7407 1072.01324,654.8177 C1072.52224,654.6077 1073.10724,654.8537 1073.31624,655.3667 C1073.52524,655.8767 1073.27924,656.4607 1072.76724,656.6687 C1044.15424,668.3297 1016.17524,672.0967 991.979238,672.0967" id="Fill-1236" fill="#272727"></path>
                <path d="M1104.17064,1041.4336 C1104.06164,1041.4336 1103.94964,1041.4156 1103.84164,1041.3776 C1103.31964,1041.1966 1103.04464,1040.6256 1103.22664,1040.1046 L1132.31664,956.6636 C1132.49764,956.1426 1133.07164,955.8666 1133.58964,956.0486 C1134.11064,956.2306 1134.38664,956.8006 1134.20464,957.3226 L1105.11464,1040.7626 C1104.97164,1041.1756 1104.58464,1041.4336 1104.17064,1041.4336" id="Fill-1237" fill="#272727"></path>
                <path d="M1106.74004,860.834 C1106.28804,860.834 1105.87804,860.525 1105.76804,860.065 L1086.08804,777.405 C1085.96004,776.868 1086.29204,776.329 1086.82904,776.201 C1087.36504,776.077 1087.90504,776.404 1088.03304,776.942 L1107.71404,859.603 C1107.84204,860.14 1107.51004,860.679 1106.97204,860.807 C1106.89404,860.825 1106.81704,860.834 1106.74004,860.834" id="Fill-1238" fill="#272727"></path>
                <path d="M204.280038,628.1035 C204.067038,628.1035 203.853038,628.0365 203.671038,627.8965 C203.233038,627.5595 203.151038,626.9315 203.488038,626.4945 L238.748038,580.6145 C239.085038,580.1765 239.712038,580.0945 240.150038,580.4305 C240.588038,580.7675 240.670038,581.3955 240.334038,581.8325 L205.073038,627.7125 C204.877038,627.9685 204.580038,628.1035 204.280038,628.1035" id="Fill-1239" fill="#272727"></path>
                <path d="M442.491438,704.2334 C442.172438,704.2334 441.859438,704.0824 441.665438,703.7984 L396.313438,637.7124 L470.736438,563.9334 C471.128438,563.5454 471.761438,563.5464 472.150438,563.9394 C472.538438,564.3324 472.536438,564.9644 472.144438,565.3534 L398.907438,637.9564 L443.315438,702.6684 C443.627438,703.1234 443.511438,703.7454 443.056438,704.0574 C442.883438,704.1764 442.686438,704.2334 442.491438,704.2334" id="Fill-1240" fill="#272727"></path>
                <path d="M966.681438,171.2676 C966.151438,171.2676 965.708438,170.8506 965.683438,170.3156 C965.657438,169.7636 966.082438,169.2946 966.634438,169.2686 L992.794438,168.0206 C993.348438,167.9936 993.815438,168.4196 993.841438,168.9716 C993.868438,169.5236 993.442438,169.9926 992.890438,170.0186 L966.730438,171.2666 C966.713438,171.2676 966.698438,171.2676 966.681438,171.2676" id="Fill-1241" fill="#272727"></path>
                <path d="M840.080838,74.9824 C837.426838,74.9824 835.267838,77.1414 835.267838,79.7954 C835.267838,82.4504 837.426838,84.6094 840.080838,84.6094 C842.733838,84.6094 844.892838,82.4504 844.892838,79.7954 C844.892838,77.1414 842.733838,74.9824 840.080838,74.9824 M840.080838,86.6094 C836.323838,86.6094 833.267838,83.5524 833.267838,79.7954 C833.267838,76.0394 836.323838,72.9824 840.080838,72.9824 C843.837838,72.9824 846.892838,76.0394 846.892838,79.7954 C846.892838,83.5524 843.837838,86.6094 840.080838,86.6094" id="Fill-1242" fill="#272727"></path>
                <path d="M88.6404383,354.2188 C85.9864383,354.2188 83.8274383,356.3778 83.8274383,359.0318 C83.8274383,361.6858 85.9864383,363.8448 88.6404383,363.8448 C91.2944383,363.8448 93.4534383,361.6858 93.4534383,359.0318 C93.4534383,356.3778 91.2944383,354.2188 88.6404383,354.2188 M88.6404383,365.8448 C84.8834383,365.8448 81.8274383,362.7888 81.8274383,359.0318 C81.8274383,355.2758 84.8834383,352.2188 88.6404383,352.2188 C92.3974383,352.2188 95.4534383,355.2758 95.4534383,359.0318 C95.4534383,362.7888 92.3974383,365.8448 88.6404383,365.8448" id="Fill-1243" fill="#272727"></path>
                <path d="M564.265438,159.4355 C561.612438,159.4355 559.453438,161.5945 559.453438,164.2485 C559.453438,166.9025 561.612438,169.0615 564.265438,169.0615 C566.919438,169.0615 569.078438,166.9025 569.078438,164.2485 C569.078438,161.5945 566.919438,159.4355 564.265438,159.4355 M564.265438,171.0615 C560.508438,171.0615 557.453438,168.0055 557.453438,164.2485 C557.453438,160.4925 560.508438,157.4355 564.265438,157.4355 C568.022438,157.4355 571.078438,160.4925 571.078438,164.2485 C571.078438,168.0055 568.022438,171.0615 564.265438,171.0615" id="Fill-1244" fill="#272727"></path>
                <path d="M703.623838,456.1631 C703.623838,459.3731 701.020838,461.9751 697.810838,461.9751 C694.600838,461.9751 691.997838,459.3731 691.997838,456.1631 C691.997838,452.9521 694.600838,450.3501 697.810838,450.3501 C701.020838,450.3501 703.623838,452.9521 703.623838,456.1631" id="Fill-1245" fill="#94C0FD"></path>
                <path d="M656.060338,367.2852 C650.201338,367.2852 645.434338,372.0522 645.434338,377.9112 C645.434338,383.7702 650.201338,388.5372 656.060338,388.5372 C661.919338,388.5372 666.687338,383.7702 666.687338,377.9112 C666.687338,372.0522 661.919338,367.2852 656.060338,367.2852 M656.060338,390.5372 C649.098338,390.5372 643.434338,384.8732 643.434338,377.9112 C643.434338,370.9492 649.098338,365.2852 656.060338,365.2852 C663.023338,365.2852 668.687338,370.9492 668.687338,377.9112 C668.687338,384.8732 663.023338,390.5372 656.060338,390.5372" id="Fill-1246" fill="#272727"></path>
                <path d="M1204.38844,304.4375 C1198.52944,304.4375 1193.76144,309.2045 1193.76144,315.0635 C1193.76144,320.9225 1198.52944,325.6895 1204.38844,325.6895 C1210.24744,325.6895 1215.01444,320.9225 1215.01444,315.0635 C1215.01444,309.2045 1210.24744,304.4375 1204.38844,304.4375 M1204.38844,327.6895 C1197.42544,327.6895 1191.76144,322.0255 1191.76144,315.0635 C1191.76144,308.1015 1197.42544,302.4375 1204.38844,302.4375 C1211.35044,302.4375 1217.01444,308.1015 1217.01444,315.0635 C1217.01444,322.0255 1211.35044,327.6895 1204.38844,327.6895" id="Fill-1247" fill="#272727"></path>
                <path d="M1145.08864,585.1885 C1145.08864,586.8645 1143.73064,588.2225 1142.05564,588.2225 C1140.37964,588.2225 1139.02164,586.8645 1139.02164,585.1885 C1139.02164,583.5125 1140.37964,582.1555 1142.05564,582.1555 C1143.73064,582.1555 1145.08864,583.5125 1145.08864,585.1885" id="Fill-1248" fill="#272727"></path>
                <path d="M99.4197383,244.6387 C99.4197383,246.3147 98.0617383,247.6717 96.3857383,247.6717 C94.7107383,247.6717 93.3527383,246.3147 93.3527383,244.6387 C93.3527383,242.9627 94.7107383,241.6047 96.3857383,241.6047 C98.0617383,241.6047 99.4197383,242.9627 99.4197383,244.6387" id="Fill-1249" fill="#272727"></path>
                <path d="M307.858638,151.9531 C307.858638,153.6291 306.500638,154.9871 304.824638,154.9871 C303.149638,154.9871 301.791638,153.6291 301.791638,151.9531 C301.791638,150.2781 303.149638,148.9201 304.824638,148.9201 C306.500638,148.9201 307.858638,150.2781 307.858638,151.9531" id="Fill-1250" fill="#272727"></path>
                <path d="M340.457338,52.9395 C340.080338,52.9395 339.719338,52.7245 339.549338,52.3605 L328.530338,28.6005 C328.298338,28.0995 328.516338,27.5045 329.017338,27.2725 C329.517338,27.0385 330.111338,27.2585 330.345338,27.7585 L341.364338,51.5185 C341.596338,52.0195 341.378338,52.6145 340.877338,52.8465 C340.741338,52.9105 340.598338,52.9395 340.457338,52.9395" id="Fill-1251" fill="#272727"></path>
            </g>
        </g>
    </g>
</svg>